<?xml version="1.0" encoding="UTF-8"?>
<svg version="1.1" xmlns="http://www.w3.org/2000/svg" width="16" height="16">
<path d="M0 0 C5.28 0 10.56 0 16 0 C16 5.28 16 10.56 16 16 C10.72 16 5.44 16 0 16 C0 10.72 0 5.44 0 0 Z " fill="#FBFAF9" transform="translate(0,0)"/>
<path d="M0 0 C5.28 0 10.56 0 16 0 C16 2.31 16 4.62 16 7 C13.36 6.34 10.72 5.68 8 5 C8 4.34 8 3.68 8 3 C7.1028125 3.2784375 7.1028125 3.2784375 6.1875 3.5625 C4 4 4 4 1 3 C0.67 3.66 0.34 4.32 0 5 C0 3.35 0 1.7 0 0 Z " fill="#FEFDFD" transform="translate(0,0)"/>
<path d="M0 0 C1.98 0 3.96 0 6 0 C6 0.66 6 1.32 6 2 C8.31 2.33 10.62 2.66 13 3 C13 3.66 13 4.32 13 5 C10.03 4.505 10.03 4.505 7 4 C6.67 5.65 6.34 7.3 6 9 C4.35 9.33 2.7 9.66 1 10 C1 9.34 1 8.68 1 8 C1.66 7.67 2.32 7.34 3 7 C3 5.68 3 4.36 3 3 C2.01 2.67 1.02 2.34 0 2 C0 1.34 0 0.68 0 0 Z " fill="#E0B2A0" transform="translate(2,3)"/>
<path d="M0 0 C-0.33 1.65 -0.66 3.3 -1 5 C-2.65 5.33 -4.3 5.66 -6 6 C-6 4 -6 4 -4.125 1.875 C-2 0 -2 0 0 0 Z " fill="#767676" transform="translate(9,7)"/>
</svg>
